<?xml version="1.0" encoding="UTF-8"?> <svg xmlns="http://www.w3.org/2000/svg" id="undraw_Co_workers_re_1i6i" width="461.407" height="389.724" viewBox="0 0 461.407 389.724"><path id="Path_3413" data-name="Path 3413" d="M860.216,354.635q.813,3.174,1.523,6.38H700.648v-6.38Z" transform="translate(-405.021 -221.289)" fill="#e6e6e6"></path><path id="Path_3414" data-name="Path 3414" d="M932.938,312.653a197.131,197.131,0,0,0-9.057-21.455q-1.587-3.222-3.3-6.38c-.187-.361-.387-.722-.587-1.084v47.476h13.92V315.478Z" transform="translate(-482.877 -196.123)" fill="#e6e6e6"></path><path id="Path_3415" data-name="Path 3415" d="M923.881,291.795H920v-6.38h.587Q922.3,288.569,923.881,291.795Z" transform="translate(-482.877 -196.72)" fill="#ccc"></path><path id="Path_3416" data-name="Path 3416" d="M690.586,180.65h-12.94v6.38h13.92v-3.554Z" transform="translate(-240.525 -64.12)" fill="#ccc"></path><rect id="Rectangle_223" data-name="Rectangle 223" width="13.918" height="55.091" transform="translate(415.665 79.998)" fill="#e6e6e6"></rect><rect id="Rectangle_224" data-name="Rectangle 224" width="13.918" height="6.379" transform="translate(415.665 88.697)" fill="#ccc"></rect><rect id="Rectangle_225" data-name="Rectangle 225" width="13.918" height="6.379" transform="translate(415.665 116.532)" fill="#ccc"></rect><path id="Path_3417" data-name="Path 3417" d="M780.848,271.435H730.921a2.907,2.907,0,0,0-2.9,2.9v49.927a3,3,0,0,0,.122.839,2.909,2.909,0,0,0,2.78,2.064h49.927a2.909,2.909,0,0,0,2.78-2.064,2.991,2.991,0,0,0,.122-.839V274.338A2.907,2.907,0,0,0,780.848,271.435Z" transform="translate(-414.735 -191.757)" fill="#e6e6e6"></path><path id="Path_3418" data-name="Path 3418" d="M779.253,276.935H736.421a2.907,2.907,0,0,0-2.9,2.9V322.67a2.907,2.907,0,0,0,2.9,2.9h42.832a2.907,2.907,0,0,0,2.9-2.9V279.838A2.907,2.907,0,0,0,779.253,276.935Z" transform="translate(-416.688 -193.71)" fill="#fff"></path><path id="Path_3419" data-name="Path 3419" d="M775.893,288.515H748a2.907,2.907,0,0,0-2.9,2.9V319.31a2.907,2.907,0,0,0,2.9,2.9h27.892a2.918,2.918,0,0,0,2.9-2.9V291.418A2.907,2.907,0,0,0,775.893,288.515Z" transform="translate(-420.798 -197.82)" fill="#ccc"></path><path id="Path_3420" data-name="Path 3420" d="M771.9,321.382l-5.891-10.2a1.29,1.29,0,0,0-2.235,0l-4.3,7.451-5.642-9.771a1.29,1.29,0,0,0-2.234,0l-5.891,10.2L738.7,331.2h13.517l-1.339,2.32h28.035Z" transform="translate(-418.526 -204.812)" fill="#fff"></path><circle id="Ellipse_123" data-name="Ellipse 123" cx="4.059" cy="4.059" r="4.059" transform="translate(347.237 92.756)" fill="#fff"></circle><path id="Path_3421" data-name="Path 3421" d="M940.691,418.453q-.068-3.754-.3-7.47-.1-1.78-.238-3.548H912.921a2.907,2.907,0,0,0-2.9,2.9v49.927a2.635,2.635,0,0,0,.084.677,2.905,2.905,0,0,0,2.819,2.225h25.106c.129-.735.252-1.484.361-2.225.071-.439.142-.884.207-1.322.155-1.051.3-2.1.438-3.154q.29-2.148.522-4.315.851-7.77,1.1-15.707v-.007q.087-2.99.09-6.005v-7.741C940.742,421.272,940.729,419.859,940.691,418.453Z" transform="translate(-479.335 -240.03)" fill="#e6e6e6"></path><path id="Path_3422" data-name="Path 3422" d="M942.643,420.4q-.068-3.754-.3-7.47H918.421a2.907,2.907,0,0,0-2.9,2.9V458.67a2.907,2.907,0,0,0,2.9,2.9h22.126c.155-1.051.3-2.1.438-3.154q.291-2.148.523-4.315.852-7.77,1.1-15.707v-.006q.087-2.99.09-6.005v-7.741C942.694,423.224,942.682,421.811,942.643,420.4Z" transform="translate(-481.287 -241.982)" fill="#fff"></path><path id="Path_3423" data-name="Path 3423" d="M946.753,424.515H930a2.907,2.907,0,0,0-2.9,2.9V455.31a2.907,2.907,0,0,0,2.9,2.9h15.617q.851-7.77,1.1-15.707V442.5q.087-2.99.09-6.005v-7.741C946.8,427.334,946.792,425.921,946.753,424.515Z" transform="translate(-485.398 -246.092)" fill="#ccc"></path><path id="Path_3424" data-name="Path 3424" d="M944.443,449.5q-.242,7.934-1.1,15.707-.232,2.167-.522,4.315h-9.947l1.342-2.316H920.7l4.128-7.154,2.877-4.986,5.9-10.2a1.284,1.284,0,0,1,2.232,0l5.644,9.773Z" transform="translate(-483.126 -253.083)" fill="#fff"></path><path id="Path_3425" data-name="Path 3425" d="M817.462,225.275H700.648V218.9H811.669Q814.63,222.02,817.462,225.275Z" transform="translate(-405.021 -173.109)" fill="#e6e6e6"></path><path id="Path_3426" data-name="Path 3426" d="M796.838,160.2q7.141,3.928,13.92,8.418V199.8h-13.92Z" transform="translate(-439.163 -152.274)" fill="#e6e6e6"></path><rect id="Rectangle_226" data-name="Rectangle 226" width="13.918" height="6.379" transform="translate(357.675 28.967)" fill="#ccc"></rect><path id="Path_3427" data-name="Path 3427" d="M844.019,192.515v14.8H830.1V181.375q4.867,3.551,9.515,7.386Q841.838,190.6,844.019,192.515Z" transform="translate(-450.968 -159.791)" fill="#e6e6e6"></path><path id="Path_3428" data-name="Path 3428" d="M844.019,196.579V199.2H830.1v-6.373h9.515Q841.838,194.663,844.019,196.579Z" transform="translate(-450.968 -163.855)" fill="#ccc"></path><path id="Path_3429" data-name="Path 3429" d="M762.58,148.728q5.525,2.487,10.863,5.3l-2.864,5.78-9.515,19.229-2.831,5.715L753.8,193.7l-.974,1.967L748.86,193.7l-8.5-4.212,5.4-10.914h.007l2.825-5.715,9.521-19.229,2.8-5.651.032-.065Z" transform="translate(-419.115 -147.915)" fill="#e6e6e6"></path><path id="Path_3430" data-name="Path 3430" d="M540.827,6.173l-2.832,5.722-12.469-6.18,2.8-5.651L528.358,0,530,.813Z" transform="translate(-186.531)" fill="#ccc"></path><rect id="Rectangle_227" data-name="Rectangle 227" width="6.379" height="13.918" transform="matrix(0.444, -0.896, 0.896, 0.444, 326.643, 30.663)" fill="#ccc"></rect><path id="Path_3431" data-name="Path 3431" d="M864.073,490.385c-.109.742-.232,1.49-.361,2.225-.226,1.393-.471,2.774-.735,4.154H700.648v-6.38Z" transform="translate(-405.021 -269.472)" fill="#e6e6e6"></path><rect id="Rectangle_228" data-name="Rectangle 228" width="13.918" height="55.091" transform="translate(357.675 167.563)" fill="#e6e6e6"></rect><rect id="Rectangle_229" data-name="Rectangle 229" width="13.918" height="6.379" transform="translate(357.675 176.262)" fill="#ccc"></rect><rect id="Rectangle_230" data-name="Rectangle 230" width="13.918" height="6.379" transform="translate(357.675 204.097)" fill="#ccc"></rect><rect id="Rectangle_231" data-name="Rectangle 231" width="13.918" height="55.091" transform="translate(379.132 167.563)" fill="#e6e6e6"></rect><rect id="Rectangle_232" data-name="Rectangle 232" width="13.918" height="6.379" transform="translate(379.132 176.262)" fill="#ccc"></rect><rect id="Rectangle_233" data-name="Rectangle 233" width="13.918" height="6.379" transform="translate(379.132 204.097)" fill="#ccc"></rect><rect id="Rectangle_234" data-name="Rectangle 234" width="55.091" height="13.918" transform="matrix(0.444, -0.896, 0.896, 0.444, 321.24, 216.706)" fill="#e6e6e6"></rect><rect id="Rectangle_235" data-name="Rectangle 235" width="6.379" height="13.918" transform="matrix(0.444, -0.896, 0.896, 0.444, 338.993, 180.847)" fill="#ccc"></rect><rect id="Rectangle_236" data-name="Rectangle 236" width="6.379" height="13.918" transform="matrix(0.444, -0.896, 0.896, 0.444, 326.643, 205.793)" fill="#ccc"></rect><path id="Path_3432" data-name="Path 3432" d="M524.692,511.448a12.761,12.761,0,0,1,1.658,1.137l57.429-17.872,3.238-14.248,22.142,2.077-3.282,25.781a9.7,9.7,0,0,1-8.107,8.358l-67.585,10.7a12.731,12.731,0,1,1-5.493-15.932Z" transform="translate(-335.82 -265.951)" fill="#ffb8b8"></path><path id="Path_3433" data-name="Path 3433" d="M660.85,472.809l-.381-6.5V466.3l-.1-1.78-1.122-19.145a15.141,15.141,0,0,0-13.759-16.352,14.93,14.93,0,0,0-3.445.09,15.187,15.187,0,0,0-13,13.662l-2.329,9.689-4.07,16.946a5.43,5.43,0,0,0,2.8,6.115,5.339,5.339,0,0,0,2.019.593l6.786.606,6.534.581,7.541.671.542.045,1.393.129,4.664.413h.013a5.464,5.464,0,0,0,5.3-2.89A5.32,5.32,0,0,0,660.85,472.809Z" transform="translate(-377.279 -247.671)" fill="#07a38e"></path><path id="Path_3434" data-name="Path 3434" d="M729.476,341.026c0,22.077-20.414,18.738-45.6,18.738s-45.6,3.339-45.6-18.738,9.972-61.211,45.6-61.211C720.731,279.815,729.476,318.949,729.476,341.026Z" transform="translate(-382.885 -194.732)" fill="#2f2e41"></path><circle id="Ellipse_124" data-name="Ellipse 124" cx="30.682" cy="30.682" r="30.682" transform="translate(257.454 134.313) rotate(-45)" fill="#ffb8b8"></circle><path id="Path_3435" data-name="Path 3435" d="M725.827,420.6a18.93,18.93,0,0,0-1.877-1.587,19.945,19.945,0,0,0-14.6-3.864l-56.539,7.154A20.074,20.074,0,0,0,635.3,444.1c.161,1.806.342,3.709.542,5.689.258,2.483.548,5.09.884,7.786.555,4.535,1.232,9.321,2.039,14.191.7,4.193,1.5,8.444,2.419,12.643q.4,1.819.826,3.625a.023.023,0,0,0,.007.019c.032.148.064.3.1.439a.049.049,0,0,0,.007.032q.6,2.516,1.258,4.973c.168.606.329,1.206.5,1.8.452,1.613.929,3.193,1.419,4.748,3.683,11.566,8.553,21.416,14.985,26.654.084.077.168.142.258.213l.258.2.374-.116,1.587-.471,1.355-.413,17.649-5.309,4.393-1.322,14.114-4.251h.006l12.908-3.883,1.574-.477,11.089-3.335.355-4.141.478-5.5.284-3.3,2.245-26.047,1.309-15.2,1.419-16.5a20.046,20.046,0,0,0-6.109-16.242Z" transform="translate(-381.794 -242.71)" fill="#07a38e"></path><path id="Path_3436" data-name="Path 3436" d="M745.6,595.208c-.148-.432-.29-.864-.439-1.29-6.631-19.352-16.41-33.988-30.8-41.961-.006,0-.006-.007-.013-.007l-.245-.135-12.54,4.341-1.548.535-1.613.561-.02.006-11.74,4.064-.019.007-9.211,3.187H677.4l-8.521,2.948h-.006l-1.981.69L652,573.308l-1.729.6-1.548.535-.239.084-.045.735-1.064,18.655-.071,1.29-1.329,23.28L601.848,681h30.188a198.942,198.942,0,0,0,30.259-2.31l28.28-30.517a1.876,1.876,0,0,1,3.187.929l4.161,20.642a199.468,199.468,0,0,0,56.765-31.234C752.7,622.481,749.8,607.871,745.6,595.208Z" transform="translate(-369.953 -291.276)" fill="#2f2e41"></path><path id="Path_3437" data-name="Path 3437" d="M653.776,333.6h12.135l5.354-14.99,1.07,14.99h5.8l3.123-8.744.625,8.744h43.1A32.479,32.479,0,0,0,692.5,301.118h-6.246A32.479,32.479,0,0,0,653.776,333.6Z" transform="translate(-388.384 -202.293)" fill="#2f2e41"></path><path id="Path_3438" data-name="Path 3438" d="M498.477,583.091a14.7,14.7,0,0,1-20.035-10.326l-51.9-5.878,17.4-20.836,46.622,8.777a14.779,14.779,0,0,1,7.919,28.264Z" transform="translate(-307.727 -289.23)" fill="#a0616a"></path><path id="Path_3439" data-name="Path 3439" d="M453.512,499.914l-21.939-3.922-1.593-.284a9.168,9.168,0,0,1-7.167-11.669l10.772-35.794.323-1.064a20.817,20.817,0,1,0-40.155-10.947l-13.74,56.075-.51,2.077a28.021,28.021,0,0,0,24.622,34.575c.045.006.084.006.129.013l8.224.729,10.669.948,13.417,1.193,12.521,1.116a6.563,6.563,0,0,0,7.057-5.406c.019-.09.032-.181.045-.271l2.658-19.842.026-.181A6.56,6.56,0,0,0,453.512,499.914Z" transform="translate(-290.747 -244.619)" fill="#ccc"></path><path id="Path_3440" data-name="Path 3440" d="M403.787,291.363c-8.758,17.218-15.66,34.978-34.978,34.978a34.978,34.978,0,1,1,0-69.955C388.442,256.14,420.088,259.315,403.787,291.363Z" transform="translate(-274.822 -186.412)" fill="#2f2e41"></path><path id="Path_3441" data-name="Path 3441" d="M418.185,655.456l-.794-7.921-.593.032-104.3,5.025.271,8.018.458,13.733a199.2,199.2,0,0,0,53.146,28.931l.677-5.251a1.873,1.873,0,0,1,3.664-.232l2.058,7.67a196.948,196.948,0,0,0,51.34,9.3Z" transform="translate(-267.25 -325.251)" fill="#2f2e41"></path><circle id="Ellipse_125" data-name="Ellipse 125" cx="30.682" cy="30.682" r="30.682" transform="translate(52.319 109.929) rotate(-45)" fill="#a0616a"></circle><path id="Path_3442" data-name="Path 3442" d="M421.248,552.619l-6.083-18.887-.1-.323-.31-.967-1.735-5.38c-.561-1.748-1.1-3.5-1.593-5.264q-.687-2.38-1.284-4.773-.851-3.328-1.548-6.683a165.6,165.6,0,0,1-3.142-22.79q-.213-3.183-.3-6.38a164.9,164.9,0,0,1,3.5-38.9,52.757,52.757,0,0,0-26.021-57.133,51.873,51.873,0,0,0-21.055-6.315c-.51-.039-1.019-.071-1.535-.1a52.226,52.226,0,0,0-41.89,16.939,53.265,53.265,0,0,0-7.3,10.114,52.537,52.537,0,0,0-6.012,33.343l7.25,48.683-1.651,20.493-1.948,24.151-.1,1.29L306.3,559.482a5.608,5.608,0,0,0,3.535,5.677,5.489,5.489,0,0,0,2.064.393c.1,0,.2,0,.3-.006L415.255,560l.942-.052a5.615,5.615,0,0,0,5.051-7.334Z" transform="translate(-264.32 -229.8)" fill="#c9e4f3"></path><path id="Path_3443" data-name="Path 3443" d="M408.278,282.411a41.729,41.729,0,0,1-23.848,7.37,25.573,25.573,0,0,0,10.136,4.17,84.145,84.145,0,0,1-34.37.193,22.244,22.244,0,0,1-7.2-2.471,9.106,9.106,0,0,1-4.441-5.94c-.754-4.308,2.6-8.222,6.091-10.859a44.931,44.931,0,0,1,37.757-7.545c4.218,1.09,8.443,2.932,11.182,6.319s3.551,8.609.941,12.1Z" transform="translate(-280.011 -189.822)" fill="#2f2e41"></path><path id="Path_3444" data-name="Path 3444" d="M403.861,573.851a14.7,14.7,0,0,1-20.254-9.89l-52.02-4.753L348.531,538l46.8,7.765a14.779,14.779,0,0,1,8.529,28.086Z" transform="translate(-274.025 -286.373)" fill="#a0616a"></path><path id="Path_3445" data-name="Path 3445" d="M357.823,491.44,346.063,489.6,334.2,487.744a9.167,9.167,0,0,1-7.418-11.508l10.3-37.091a20.944,20.944,0,0,0-10.347-23.977A20.812,20.812,0,0,0,296.7,429.063l-12.985,58.449A28.037,28.037,0,0,0,309.2,521.558l44.915,3.012a6.57,6.57,0,0,0,6.941-5.554c.02-.09.026-.181.039-.271l2.226-19.894.019-.181a6.566,6.566,0,0,0-5.515-7.231Z" transform="translate(-256.796 -241.913)" fill="#c9e4f3"></path><path id="Path_3446" data-name="Path 3446" d="M684.625,486.568l-2.692,1.469L648.77,506.131l-2.692,1.469a5.622,5.622,0,0,0-2.24,7.619l24.7,45.262a5.622,5.622,0,0,0,7.619,2.24l.007,0,38.533-21.025.007,0a5.622,5.622,0,0,0,2.24-7.619l-24.7-45.262A5.622,5.622,0,0,0,684.625,486.568Z" transform="translate(-384.613 -267.874)" fill="#e6e6e6"></path><path id="Path_3447" data-name="Path 3447" d="M686.289,488.876l-3.188,1.74L650.93,508.169l-3.188,1.739a4,4,0,0,0-1.6,5.426l24.7,45.262a4,4,0,0,0,5.426,1.6l.007,0,38.533-21.025.007,0a4,4,0,0,0,1.6-5.426l-24.7-45.262A4,4,0,0,0,686.289,488.876Z" transform="translate(-385.503 -268.763)" fill="#fff"></path><path id="Path_3448" data-name="Path 3448" d="M701.172,508.687a.941.941,0,0,0-1.271-.374l-1.283.7-13.088,7.141a.937.937,0,0,0,.9,1.645l14.372-7.844A.942.942,0,0,0,701.172,508.687Z" transform="translate(-399.481 -275.796)" fill="#e6e6e6"></path><path id="Path_3449" data-name="Path 3449" d="M706.9,510.118a.926.926,0,0,0-1.264-.368l-17.759,9.689a.934.934,0,0,0,.9,1.638l.826-.452,5.167-2.819h.007l11.753-6.418a.928.928,0,0,0,.374-1.271Z" transform="translate(-400.317 -276.304)" fill="#e6e6e6"></path><path id="Path_3450" data-name="Path 3450" d="M676.862,528.509l-5.638-10.34a.453.453,0,0,0-.613-.174l-2.735,1.49-1.419.774-7.618,4.154-1.477.806a.453.453,0,0,0-.174.613l.361.664,5.276,9.676a.447.447,0,0,0,.606.174l9.1-4.96,1.419-.774,2.735-1.49a.449.449,0,0,0,.181-.613Z" transform="translate(-389.575 -279.252)" fill="#e6e6e6"></path><path id="Path_3451" data-name="Path 3451" d="M709.409,529.027a.934.934,0,0,0-1.264-.374L688.651,539.29a.935.935,0,0,0-.471.987.784.784,0,0,0,.1.284.953.953,0,0,0,.187.239l.006.006a.943.943,0,0,0,1.077.129L709.041,530.3a.933.933,0,0,0,.368-1.271Z" transform="translate(-400.59 -283.015)" fill="#e6e6e6"></path><path id="Path_3452" data-name="Path 3452" d="M715.142,530.459a.935.935,0,0,0-1.271-.368l-22.88,12.482a.913.913,0,0,0-.471.974v.006a.782.782,0,0,0,.1.284.9.9,0,0,0,.193.245.922.922,0,0,0,1.077.129l22.88-12.482a.94.94,0,0,0,.374-1.271Z" transform="translate(-401.42 -283.524)" fill="#e6e6e6"></path><circle id="Ellipse_126" data-name="Ellipse 126" cx="3.967" cy="3.967" r="3.967" transform="translate(277.564 258.694)" fill="#e6e6e6"></circle><path id="Path_3453" data-name="Path 3453" d="M702.625,459.568l-2.692,1.469L666.77,479.131l-2.692,1.469a5.622,5.622,0,0,0-2.24,7.619l24.7,45.262a5.622,5.622,0,0,0,7.619,2.24l.007,0,38.533-21.024.007,0a5.622,5.622,0,0,0,2.24-7.619l-24.7-45.262A5.622,5.622,0,0,0,702.625,459.568Z" transform="translate(-391.003 -258.291)" fill="#ccc"></path><path id="Path_3454" data-name="Path 3454" d="M704.289,461.876l-3.188,1.74L668.93,481.169l-3.188,1.74a4,4,0,0,0-1.6,5.426l24.7,45.262a4,4,0,0,0,5.426,1.6l.007,0,38.533-21.025.007,0a4,4,0,0,0,1.595-5.426l-24.7-45.262a4,4,0,0,0-5.426-1.6Z" transform="translate(-391.892 -259.18)" fill="#fff"></path><path id="Path_3455" data-name="Path 3455" d="M719.172,481.687a.941.941,0,0,0-1.271-.374l-6.618,3.612-1.845,1.006-5.908,3.225a.937.937,0,1,0,.9,1.645l6.967-3.8,1.458-.8,5.948-3.245A.942.942,0,0,0,719.172,481.687Z" transform="translate(-405.87 -266.212)" fill="#ccc"></path><path id="Path_3456" data-name="Path 3456" d="M724.9,483.118a.926.926,0,0,0-1.264-.368l-9.231,5.038-1.419.774-7.109,3.877a.934.934,0,1,0,.9,1.638l7.108-3.877,1.419-.774,9.224-5.038a.929.929,0,0,0,.374-1.271Z" transform="translate(-406.706 -266.721)" fill="#ccc"></path><path id="Path_3457" data-name="Path 3457" d="M694.862,501.509l-4.5-8.244-.774-1.419-.368-.677a.453.453,0,0,0-.613-.174l-9.128,4.98-4.122,2.245a.453.453,0,0,0-.174.613l.367.671.4.742.374.677v.006l4.5,8.244a.447.447,0,0,0,.606.174l13.249-7.225a.449.449,0,0,0,.181-.613Z" transform="translate(-395.964 -269.668)" fill="#54bceb"></path><path id="Path_3458" data-name="Path 3458" d="M727.407,502.027a.934.934,0,0,0-1.264-.374l-5.825,3.18-1.419.774-5.625,3.064-6.625,3.619a.937.937,0,1,0,.9,1.645l12.25-6.683,1.419-.774,5.825-3.18a.934.934,0,0,0,.368-1.271Z" transform="translate(-406.977 -273.432)" fill="#ccc"></path><path id="Path_3459" data-name="Path 3459" d="M733.142,503.459a.935.935,0,0,0-1.271-.368l-9.205,5.025-1.419.774-12.256,6.683a.934.934,0,1,0,.9,1.638l12.25-6.683,1.419-.774,9.211-5.025A.939.939,0,0,0,733.142,503.459Z" transform="translate(-407.81 -273.941)" fill="#ccc"></path><circle id="Ellipse_127" data-name="Ellipse 127" cx="3.967" cy="3.967" r="3.967" transform="translate(289.175 241.277)" fill="#ccc"></circle><path id="Path_3460" data-name="Path 3460" d="M693.282,529.067a12.762,12.762,0,0,1,1.979.354l44.993-39.914-2.909-14.319,21.036-7.215,7.614,24.848a9.7,9.7,0,0,1-3.951,10.953l-57.2,37.555a12.731,12.731,0,1,1-11.561-12.262Z" transform="translate(-397.475 -261.517)" fill="#ffb8b8"></path><path id="Path_3461" data-name="Path 3461" d="M798.545,454.567,785.8,430.223a15.144,15.144,0,0,0-18.848-9.379c-.142.039-.278.084-.419.135a15.176,15.176,0,0,0-9.328,19.307l5.115,26.905a5.449,5.449,0,0,0,2.632,3.7,5.322,5.322,0,0,0,2.438.722,5.249,5.249,0,0,0,2.083-.29l2.735-.955,17.558-6.115,5.741-2a5.464,5.464,0,0,0,3.038-7.689Z" transform="translate(-424.795 -244.537)" fill="#07a38e"></path><path id="Path_3462" data-name="Path 3462" d="M664.22,618.375H243a.645.645,0,1,1,0-1.29H664.22a.645.645,0,0,1,0,1.29Z" transform="translate(-242.352 -314.443)" fill="#3f3d56"></path><path id="Path_3463" data-name="Path 3463" d="M355.848,600.585v.323a11.3,11.3,0,0,0,6.728,10.321,11.117,11.117,0,0,0,4.56.967H471.313V600.585Z" transform="translate(-282.637 -308.587)" fill="#3f3d56"></path><path id="Path_3464" data-name="Path 3464" d="M570.671,475.435a21.023,21.023,0,0,0-7.367-8.4,20.622,20.622,0,0,0-4.612-2.284,20.883,20.883,0,0,0-6.9-1.167H451.813a20.989,20.989,0,0,0-20.964,20.964V542.6a20.241,20.241,0,0,0,.142,2.438,21.151,21.151,0,0,0,.735,3.573,20.611,20.611,0,0,0,1.329,3.341,20.942,20.942,0,0,0,18.758,11.611H551.8A20.957,20.957,0,0,0,572.761,542.6V484.549A20.785,20.785,0,0,0,570.671,475.435Z" transform="translate(-309.257 -259.96)" fill="#3f3d56"></path><circle id="Ellipse_128" data-name="Ellipse 128" cx="5.16" cy="5.16" r="5.16" transform="translate(192.87 248.457)" fill="#fff"></circle></svg> 